<svg width="1100" height="1100" viewBox="0 0 1100 1100" fill="none" xmlns="http://www.w3.org/2000/svg">
<g clip-path="url(#clip0_698_134)">
<path d="M855.576 801.355V854.502H893.183V1070H206.992V854.502H244.385V801.048C198.927 736.981 175.31 665.734 174.059 588.669C172.47 491.123 202.885 406.834 264.473 338.152C343.246 250.442 436.99 205.985 543.108 205.985C587.467 205.985 634.682 213.803 683.608 229.26C708.659 184.039 719.154 131.454 715.702 68.9295L713.548 30L745.335 65.2796C776.65 99.9942 806.237 132.785 828.05 173.899L830.54 178.604L829.227 183.75C828.203 187.735 827.134 191.813 826.035 195.997C825.241 199.005 824.446 202.075 823.636 205.191C835.718 231.963 844.152 255.209 850.047 278.025L851.468 283.537L848.581 288.441C847.253 290.685 845.893 293.174 844.366 296.017C848.445 317.674 850.934 338.047 851.912 358.084C852.08 358.36 852.415 358.848 853.042 359.689C904.045 429.102 929.769 514.553 925.554 600.444C921.993 672.714 897.432 742.754 855.578 801.355H855.576Z" fill="white"></path>
<path d="M220.738 868.243H258.135V828.728H283.846C222.439 759.046 189.292 679.59 187.803 588.45C186.314 497.309 213.938 415.093 274.708 347.322C388.813 220.278 529.05 191.599 689.901 245.773C722.411 192.662 733.035 133.388 729.423 68.1685C762.147 104.498 793.593 138.276 815.905 180.34C813.779 188.625 811.441 197.336 809.104 206.47C820.154 230.477 829.927 255.121 836.727 281.463C834.601 285.074 832.478 289.111 829.927 293.785C834.176 315.241 837.15 337.126 838.213 359.43C838.425 362.83 840.125 365.379 842.037 367.927C943.817 506.443 933.405 695.947 820.788 822.989C819.726 824.263 818.663 825.537 816.539 828.511H841.825V868.238H879.435V1056.25H220.738V868.238V868.243Z" fill="#304E46"></path>
<path d="M476.995 816.194C445.334 806.209 417.073 790.276 391.576 769.457C369.265 782.416 324.857 806.423 324.431 805.786C337.181 783.904 349.928 762.023 362.678 740.141C336.967 708.911 319.544 674.496 310.832 635.829C310.406 634.13 310.195 631.793 308.92 630.944C297.447 623.084 297.022 613.099 304.034 601.626C278.748 595.04 230.728 581.018 230.939 580.592C255.374 574.219 279.599 567.845 304.245 561.259C297.233 547.026 297.445 543.414 307.432 533.855C310.195 531.092 310.832 527.907 311.681 524.507C320.179 489.24 335.692 457.373 358.215 428.906C359.915 426.781 362.464 425.083 362.253 421.684C349.928 400.439 326.343 356.461 326.98 355.824L391.788 393.639C423.872 367.084 459.996 349.239 500.155 340.74C510.567 328.629 515.028 327.78 530.327 334.58C536.702 310.787 550.513 263.835 551.15 263.835C557.311 287.416 563.474 310.787 570.061 335.854C577.284 328.631 585.148 330.117 593.009 331.606C627.007 313.972 656.328 291.028 679.491 259.798C556.462 208.809 389.239 231.542 282.146 361.135C232 421.895 205.228 492.003 203.102 570.821C202.465 597.803 203.951 644.329 222.224 697.866C247.51 771.373 290.856 819.385 316.356 843.604H273.433V883.756H235.612V1041.18H863.927V883.545H826.531V843.604H779.148C845.868 781.782 884.327 708.488 895.165 620.536C904.94 540.654 869.668 407.664 829.294 380.046C828.02 406.813 825.894 432.732 819.307 457.59C815.27 460.138 811.658 462.475 808.046 464.813C802.946 484.571 795.722 503.479 788.924 519.412C786.798 531.097 795.299 534.497 798.699 540.657C802.948 548.094 798.487 554.679 796.15 561.69C820.799 568.275 844.81 574.438 868.607 580.809V582.721C844.384 589.094 820.161 595.468 795.938 601.84C801.462 614.799 802.313 620.536 796.15 625.847C789.989 630.946 788.712 637.318 786.8 644.117C782.551 660.262 776.813 675.773 769.376 690.855C760.663 708.7 749.402 725.059 736.866 740.567C749.827 762.874 762.577 784.544 775.325 806.426C774.688 807.063 730.065 782.633 707.754 769.459C682.257 790.915 653.359 806.426 622.335 816.623C618.935 864.211 590.888 893.953 550.515 894.378C509.719 894.59 481.458 865.06 476.995 816.197V816.194Z" fill="white"></path>
<path d="M365.016 394.7C364.59 393.637 363.953 392.788 362.89 394.062C363.101 394.7 363.316 395.337 363.739 395.974C369.262 406.171 375 416.156 380.524 426.355C343.339 467.995 324.003 516.219 320.391 571.244C308.278 574.43 285.332 581.867 285.332 582.504C297.019 585.689 308.706 588.878 320.605 592.063C324.005 647.723 343.979 695.949 380.526 736.739C374.788 746.935 369.691 756.497 364.378 766.057C363.953 766.906 363.53 767.545 362.467 769.243C364.378 768.606 385.627 756.92 395.402 751.398C424.937 778.165 458.721 795.587 496.331 805.361C488.894 847.424 516.305 880.991 556.676 876.743C566.237 875.68 575.161 871.857 582.811 866.12C603.21 849.975 608.308 828.942 603.422 805.149C642.095 795.375 675.453 777.531 704.565 751.4C715.189 757.56 736.012 768.822 736.649 768.397C730.7 758.2 725.388 747.364 719.224 736.955C756.409 695.529 775.957 647.303 779.357 592.066C791.47 588.666 802.943 585.481 817.393 581.444C802.732 577.407 791.044 574.433 779.357 571.247C778.083 553.614 775.32 537.043 771.496 521.11C782.546 498.802 790.196 476.072 796.145 452.702C799.757 450.576 803.157 448.665 806.343 446.753C812.718 421.898 813.781 396.828 814.842 371.972C818.028 369.423 820.579 367.086 823.34 364.749C822.703 338.831 819.302 313.549 813.353 289.119C815.69 285.296 817.816 282.108 819.94 278.708C813.565 253.001 803.792 228.996 792.316 206.052C794.228 196.704 798.477 188.63 798.477 179.496C783.604 153.789 766.179 130.633 744.082 107.688C743.656 116.822 743.656 122.985 743.019 129.359C733.032 230.059 683.949 303.778 592.367 348.393C581.317 353.704 570.693 352.43 560.069 350.941C555.605 340.745 555.605 329.697 549.233 318.223C545.833 330.545 542.858 340.956 539.883 351.364C484.425 354.55 436.402 374.734 395.394 411.061L365.008 394.702L365.016 394.7Z" fill="white"></path>
<path d="M296.602 424.568L319.837 426.005C300.074 457.446 285.758 491.363 278.321 527.904C271.734 523.442 266.422 519.831 260.258 515.582C255.158 532.578 254.735 549.36 252.609 566.994C246.66 568.268 240.496 569.756 234.547 571.031C235.184 559.771 236.247 547.449 238.37 534.278C241.133 516.219 245.171 500.286 249.42 486.266C252.606 487.966 261.533 493.066 267.268 496.889C270.88 487.329 274.069 477.981 277.681 468.845C281.293 459.708 285.542 450.786 290.005 440.8L268.973 439.286C282.361 412.305 299.569 386.626 320.391 364.319C323.792 370.056 326.552 374.73 329.741 380.041C318.48 393.849 307.77 405.892 297.995 422.249L296.599 424.568H296.602Z" fill="#00964D"></path>
<path d="M394.333 351.999C392.844 343.714 391.784 337.552 390.509 330.329C375.21 338.614 363.1 349.874 349.713 360.285C344.827 357.31 339.938 354.548 333.988 351.148C355.237 331.178 377.973 314.819 404.108 301.222C405.383 308.445 406.657 314.819 408.146 322.467C426.208 313.119 444.267 305.259 464.03 298.885C459.566 292.725 455.954 287.414 451.494 281.252C480.391 271.267 509.501 266.804 539.676 265.318C539.038 268.292 538.401 271.478 537.764 274.455C537.127 277.429 536.489 280.192 536.064 282.952C518.216 284.652 500.154 286.137 481.669 291.237C485.706 297.185 489.53 302.496 493.993 309.082C458.294 317.793 425.573 331.175 394.338 351.997L394.333 351.999Z" fill="#00964D"></path>
<path d="M330.379 781.142C327.404 786.242 324.641 790.916 321.881 795.376C308.282 786.242 278.747 745.239 271.098 725.057C277.473 723.782 283.848 722.508 291.071 721.234C282.147 702.963 274.072 684.905 268.123 665.785L249.849 676.408C240.714 649.215 236.039 621.385 235.188 592.704C252.824 596.526 246.875 594.615 252.824 596.526C254.736 613.097 255.799 629.456 260.262 647.089C266.423 642.627 271.735 639.016 278.324 634.556C286.399 670.885 299.784 704.026 319.758 734.193C299.358 740.142 312.098 736.28 299.358 740.142C307.645 754.587 318.906 767.334 330.382 781.145L330.379 781.142Z" fill="#00964D"></path>
<path d="M356.513 863.784V831.279C349.501 825.12 342.277 818.957 334.628 812.372C336.753 810.46 347.378 803.449 349.501 802.387C358.851 809.823 368.2 817.257 377.336 824.48V883.754H293.191V863.572C314.228 863.783 335.262 863.784 356.511 863.784H356.513Z" fill="#00964D"></path>
<path d="M809.107 721.231C817.182 722.719 823.343 723.78 830.566 725.268C817.179 751.824 799.969 774.98 779.783 796.861L770.008 781.777C780.844 768.606 792.319 755.647 801.243 740.35L780.632 735.039C800.18 704.021 814.63 671.305 821.854 635.401L840.339 646.024C845.44 630.09 845.44 613.306 847.989 596.735L865.199 592.061C865.199 621.379 859.676 648.784 851.175 676.191L832.901 665.568C826.526 684.05 819.303 702.535 809.104 721.229L809.107 721.231Z" fill="#ED2B3D"></path>
<path d="M723.477 824.268C731.975 817.469 741.113 810.246 750.674 802.598C755.561 805.572 760.449 808.335 766.399 811.946C758.538 818.957 751.526 825.117 744.088 831.491V862.932H806.132C806.77 882.691 806.132 863.995 806.77 883.751H723.688C723.477 864.632 723.477 844.448 723.477 824.266V824.268Z" fill="#ED2B3D"></path>
<path d="M833.968 497.312C839.491 493.489 844.592 489.875 850.967 485.415C860.742 513.459 865.628 570.819 865.628 570.819L848.204 567.208C846.503 550.212 845.655 533.004 840.342 515.582C834.393 519.619 829.293 523.23 823.132 527.479C819.417 514.811 815.565 502.146 811.793 489.478L815.694 468.419C817.34 467.622 818.988 466.825 820.58 466.082C829.504 485.841 828.867 486.69 833.968 497.312Z" fill="#ED2B3D"></path>
<path d="M649.956 281.252C637.843 295.7 611.92 310.782 611.92 310.782L606.819 308.87C610.643 303.348 614.257 298.037 618.718 291.663C600.444 286.563 582.808 284.863 564.746 283.803C563.897 280.829 563.046 277.855 562.197 274.666C561.56 271.692 560.922 268.718 560.285 265.956C591.095 266.381 620.418 272.115 649.953 281.252H649.956Z" fill="#ED2B3D"></path>
<path d="M461.906 393.851C458.083 404.685 454.682 413.396 451.282 423.17C467.644 438.04 487.404 441.015 507.592 441.44C522.465 431.455 532.026 418.284 538.827 402.562C545.413 387.477 547.325 371.332 549.877 353.062C553.063 359.647 555.189 364.321 557.738 369.421C567.513 366.235 576.86 363.047 587.484 359.647C591.522 397.251 581.109 429.33 556.886 456.948C532.663 484.566 501.217 498.374 463.181 500.288C483.155 563.385 518.639 612.674 572.822 647.726C573.885 647.726 574.734 648.152 575.371 647.726C593.857 639.015 612.13 642.415 630.83 647.938C663.765 657.712 735.159 675.556 737.071 678.531C728.573 696.164 716.46 711.672 702.65 726.756C704.775 732.068 707.113 737.379 709.236 742.901C633.593 704.235 574.097 673.856 533.301 653.461C529.051 651.335 517.576 645.387 503.554 635.19C457.446 602.049 430.885 559.56 440.021 500.074C429.822 494.126 419.621 488.603 409.848 482.229C400.287 476.07 391.786 468.633 384.988 459.497C392.212 442.075 434.923 405.111 461.906 393.851Z" fill="#304E46"></path>
<path d="M751.1 125.954C767.885 144.65 780.424 162.284 791.897 181.614C774.26 249.81 736.65 303.348 676.517 342.863C673.542 330.329 670.779 318.855 667.805 306.747C717.739 258.31 745.786 198.824 751.098 125.954H751.1Z" fill="#304E46"></path>
<path d="M679.277 387.9V350.085C729.635 318.218 766.182 273.817 788.708 215.818C799.332 236.214 806.556 256.182 812.293 277.003C780.632 328.203 737.499 365.593 679.277 387.9Z" fill="#304E46"></path>
<path d="M807.83 296.974C812.505 320.13 815.691 340.314 815.691 361.133C775.532 399.585 728.572 424.018 672.051 432.515C674.388 419.767 676.3 408.508 678.637 395.974C730.695 376.855 773.829 344.562 807.827 296.974H807.83Z" fill="#304E46"></path>
<path d="M655.055 474.579C659.941 462.894 664.616 452.271 669.505 440.8C720.077 433.578 765.548 413.607 806.77 379.189C806.981 401.708 804.007 421.89 800.183 441.223C756.198 466.716 696.702 480.527 655.057 474.579H655.055Z" fill="#304E46"></path>
<path d="M623.822 519.407C665.044 531.304 706.478 533.641 750.674 525.355C743.025 541.077 734.312 553.611 724.751 567.208C742.176 571.882 759.387 576.556 776.809 581.23C763.636 584.204 750.674 587.389 737.499 590.366C705.2 582.081 678.429 575.07 655.906 569.759C642.944 566.573 624.245 558.925 600.022 547.665C598.747 547.028 597.685 546.177 595.984 545.117C605.334 536.406 614.046 528.335 623.819 519.41L623.822 519.407Z" fill="#304E46"></path>
<path d="M766.82 514.308C720.498 525.142 675.452 526.204 629.344 512.819C636.568 502.409 643.368 492.638 650.592 482.227C697.126 485.412 742.172 477.341 787.006 456.308C782.331 478.19 775.107 496.035 766.82 514.305V514.308Z" fill="#304E46"></path>
<path d="M723.476 595.887C698.616 603.323 673.967 610.757 649.107 618.194C615.323 607.783 585.151 591.85 557.527 568.694C568.363 562.32 578.138 556.371 588.974 549.998C609.797 560.831 632.108 569.542 654.845 576.765C677.368 584.201 700.316 589.513 723.476 595.884V595.887Z" fill="#304E46"></path>
<path d="M612.983 346.686C631.468 428.901 569.635 516.856 481.244 526.204C477.206 521.105 475.932 514.519 473.383 507.297C511.205 502.411 542.865 486.689 566.451 457.16C590.248 427.63 599.386 393.637 594.923 355.611C600.661 352.636 606.396 349.874 612.985 346.688L612.983 346.686Z" fill="#304E46"></path>
<path d="M514.389 584.627C526.714 580.378 537.549 576.553 549.874 572.516C574.522 593.124 602.569 609.906 636.779 622.016C614.681 628.602 595.131 634.55 575.157 640.498C552.208 625.414 532.023 607.569 514.387 584.624L514.389 584.627Z" fill="#304E46"></path>
<path d="M537.129 664.083C550.302 670.882 562.415 677.253 574.739 683.416V724.842C557.314 729.091 539.04 716.768 537.343 699.135C536.28 688.087 537.131 676.828 537.131 664.083H537.129Z" fill="#304E46"></path>
<path d="M483.793 533.852C492.931 531.941 500.792 530.241 509.505 528.33C519.28 541.5 530.327 553.823 542.866 565.719C532.03 572.093 520.98 574.004 509.719 577.404C499.52 564.019 491.233 550 483.796 533.852H483.793Z" fill="#304E46"></path>
<path d="M612.559 434.641C615.108 425.93 617.445 418.282 619.997 409.785C636.358 406.599 652.932 404.474 669.717 398.525C669.928 411.273 666.105 422.107 663.342 433.792C646.557 435.918 630.195 435.703 612.559 434.641Z" fill="#304E46"></path>
<path d="M670.993 390.663C654.631 396.185 639.121 399.585 621.91 401.711C622.759 392.574 623.399 384.714 624.248 376.004C639.758 370.055 655.271 363.47 670.57 355.185C672.908 367.507 672.482 378.766 670.996 390.663H670.993Z" fill="#304E46"></path>
<path d="M574.523 490.514C580.684 483.503 585.996 477.555 591.734 470.97C607.67 475.432 623.818 479.043 641.031 481.592C635.931 493.063 628.07 501.351 620.846 510.273C604.484 505.811 590.037 498.802 574.523 490.514Z" fill="#304E46"></path>
<path d="M662.067 311.844C666.53 323.955 669.079 334.789 669.717 346.685C655.481 355.182 640.819 362.193 624.034 367.293C622.971 358.582 622.122 350.511 620.848 341.586C635.084 333.3 648.471 323.527 662.07 311.844H662.067Z" fill="#304E46"></path>
<path d="M568.364 495.826C583.451 503.899 598.324 510.696 614.472 516.433C607.034 526.418 597.899 532.792 588.761 540.652C574.099 532.367 560.712 522.807 547.75 511.334C554.762 506.022 561.137 501.348 568.361 495.826H568.364Z" fill="#304E46"></path>
<path d="M660.369 441.651C656.969 453.762 652.083 463.745 646.345 474.155C629.56 473.518 613.621 469.693 596.836 464.596C601.085 456.736 605.123 449.725 609.372 441.863C626.157 443.351 642.733 443.351 660.369 441.651Z" fill="#304E46"></path>
<path d="M540.527 515.156C553.277 526.204 566.238 535.764 581.323 545.112C571.548 552.76 561.561 557.86 550.725 563.171C538.401 551.911 527.139 540.015 517.152 525.993C525.228 522.17 532.451 518.982 540.527 515.159V515.156Z" fill="#304E46"></path>
<path d="M476.569 681.29C458.721 661.746 460.207 642.624 480.818 627.116C485.705 630.939 490.805 634.976 495.692 638.801C500.366 642.412 505.253 645.601 508.016 647.512C497.392 658.983 486.979 670.031 476.569 681.29Z" fill="#304E46"></path>
<path d="M448.098 730.365C444.912 694.887 429.824 679.802 394.766 676.191C407.727 664.931 429.401 666.205 443.212 679.165C457.873 692.761 459.997 714.006 448.098 730.365Z" fill="#304E46"></path>
<path d="M587.695 781.991C563.261 758.835 540.098 758.409 510.777 781.991C513.752 767.968 520.553 759.046 531.814 753.309C545.413 746.298 559.437 746.935 571.973 755.646C581.111 761.595 588.758 769.454 587.698 781.991H587.695Z" fill="#304E46"></path>
<path d="M370.327 504.748C361.189 490.94 363.103 483.503 379.251 465.87C387.326 473.093 395.399 480.529 404.537 489.026C390.938 490.514 379.888 495.4 370.327 504.748Z" fill="#304E46"></path>
<path d="M471.468 687.453C469.768 688.941 468.067 690.427 466.367 691.915C464.667 693.404 463.181 694.889 461.904 696.378C459.355 691.067 456.803 685.755 454.043 680.233C454.892 679.17 455.955 678.107 456.806 677.047C458.081 675.773 459.143 674.285 460.206 673.01C463.818 677.684 467.43 682.358 471.468 687.455V687.453Z" fill="#304E46"></path>
<path d="M574.735 734.827L574.098 747.575C568.575 745.664 563.048 743.752 557.313 741.627L557.102 732.067C562.839 733.13 568.574 733.979 574.738 734.83L574.735 734.827Z" fill="#304E46"></path>
<path d="M392.85 666.845C387.964 665.145 383.712 663.66 377.34 661.534C387.752 657.711 396.039 657.497 405.389 661.323C400.926 663.234 397.314 664.934 392.853 666.845H392.85Z" fill="#304E46"></path>
<path d="M508.23 765.42C506.955 768.606 505.892 771.794 504.406 775.405C500.794 777.105 492.508 779.442 492.082 779.017C494.845 772.006 507.807 764.995 508.23 765.42Z" fill="#304E46"></path>
<path d="M565.811 815.983C563.473 822.783 561.562 828.731 559.65 834.465C553.063 835.739 547.114 835.528 540.313 834.465C538.401 828.728 536.276 822.78 534.152 816.195C539.464 812.372 544.565 808.758 549.877 804.724C555.189 808.546 560.075 811.946 565.813 815.983H565.811Z" fill="#304E46"></path>
<path d="M515.241 793.25C517.153 800.687 518.642 805.998 519.916 811.52C516.73 817.043 512.478 821.506 506.317 826.817C504.617 814.069 507.38 804.084 515.241 793.25Z" fill="#304E46"></path>
<path d="M567.511 779.865C560.71 783.477 555.824 786.239 550.937 788.999C544.776 787.088 539.464 784.114 533.727 779.865C544.776 774.554 555.186 774.766 567.511 779.865Z" fill="#304E46"></path>
<path d="M584.937 793.676C592.798 804.087 594.923 814.072 593.649 827.88C588.125 821.931 584.299 817.683 580.262 813.221C580.687 806.635 582.599 800.687 584.937 793.676Z" fill="#304E46"></path>
<path d="M543.714 863.783C530.964 861.235 522.04 856.347 514.816 845.938H532.241C537.553 850.401 539.679 856.561 543.714 863.783Z" fill="#304E46"></path>
<path d="M566.237 846.15C572.187 845.725 577.71 845.513 586.211 844.876C578.136 855.924 569.426 861.021 556.039 863.572C559.863 856.773 563.051 851.675 566.237 846.15Z" fill="#304E46"></path>
<path d="M587.484 781.991C587.696 781.991 587.91 781.779 588.122 781.779C588.122 781.779 587.91 781.779 587.484 781.991Z" fill="#304E46"></path>
<path d="M616.796 917.07H596.598V1016.05H616.796V917.07Z" fill="#304E46"></path>
<path d="M542.593 966.558L578.583 1016.04H553.606L530.113 983.724L506.605 1016.04H481.629L517.619 966.558L481.629 917.076H506.605L530.113 949.391L553.606 917.076H578.583L542.593 966.558Z" fill="#304E46"></path>
<path d="M466.176 934.554V917.07H410.037H389.836V934.554V957.816V975.299V998.564V1016.05H410.037H466.176V998.564H410.037V975.299H459.502V957.816H410.037V934.554H466.176Z" fill="#304E46"></path>
<path d="M367.523 917.076H348.171H347.575V918.113L312.504 978.867L276.805 917.076H257.435H256.609V917.548V921.703V1016.04H276.805V956.676L301.062 998.675L306.041 1007.31H318.948L323.927 998.675L347.575 957.731V1016.04H367.768V922.756V917.212V917.076H367.523Z" fill="#304E46"></path>
<path d="M414.617 907.269H434.114L457.973 886.808H433.239L414.617 907.269Z" fill="#304E46"></path>
<path d="M728.66 931.66C718.577 920.741 703.823 913.867 687.386 913.867C656.958 913.867 632.273 937.448 632.273 966.558C632.273 995.667 656.958 1019.25 687.386 1019.25C703.823 1019.25 718.577 1012.38 728.675 1001.46L712.468 987.756C706.343 994.385 697.375 998.569 687.386 998.569C668.903 998.569 653.919 984.227 653.919 966.558C653.919 948.888 668.903 934.546 687.386 934.546C697.375 934.546 706.343 938.73 712.468 945.36L728.66 931.66Z" fill="#304E46"></path>
<path d="M791.929 913.867C761.501 913.867 736.816 937.448 736.816 966.558C736.816 995.667 761.501 1019.25 791.929 1019.25C822.356 1019.25 847.057 995.667 847.057 966.558C847.057 937.448 822.372 913.867 791.929 913.867ZM791.929 998.569C773.446 998.569 758.462 984.227 758.462 966.558C758.462 948.888 773.446 934.546 791.929 934.546C810.411 934.546 825.411 948.888 825.411 966.558C825.411 984.227 810.427 998.569 791.929 998.569Z" fill="#304E46"></path>
</g>
<defs>
<clipPath id="clip0_698_134">
<rect width="752" height="1040" fill="white" transform="translate(174 30)"></rect>
</clipPath>
</defs>
</svg>