<svg xmlns="http://www.w3.org/2000/svg" viewBox="0 0 300 320" width="300" height="320"><defs><clipPath id="jb"><path d="M128,60 L118,52 L108,52 L60,92 L54,128 L98,138 L104,128 L96,296 Q96,304 104,304 L196,304 Q204,304 204,296 L196,128 L202,138 L246,128 L240,92 L192,52 L182,52 L172,60 Q150,76 128,60 Z"></path></clipPath></defs><g clip-path="url(#jb)"><rect x="0" y="0" width="300" height="330" fill="#FFFFFF"></rect></g><path d="M128,60 L118,52 L108,52 L60,92 L54,128 L98,138 L104,128 L96,296 Q96,304 104,304 L196,304 Q204,304 204,296 L196,128 L202,138 L246,128 L240,92 L192,52 L182,52 L172,60 Q150,76 128,60 Z" fill="none" stroke="#1f1f1f" stroke-width="3" stroke-linejoin="round"></path><path d="M128,60 Q150,76 172,60" fill="none" stroke="#0A1A3F" stroke-width="7" stroke-linecap="round"></path><path d="M60,92 L54,128" fill="none" stroke="#0A1A3F" stroke-width="7" stroke-linecap="round"></path><path d="M240,92 L246,128" fill="none" stroke="#0A1A3F" stroke-width="7" stroke-linecap="round"></path></svg>