<svg xmlns="http://www.w3.org/2000/svg" viewBox="0 0 300 320" width="300" height="320"><defs><clipPath id="jb"><path d="M128,60 L118,52 L108,52 L60,92 L54,128 L98,138 L104,128 L96,296 Q96,304 104,304 L196,304 Q204,304 204,296 L196,128 L202,138 L246,128 L240,92 L192,52 L182,52 L172,60 Q150,76 128,60 Z"></path></clipPath></defs><g clip-path="url(#jb)"><rect x="0" y="0" width="300" height="330" fill="#FFFFFF"></rect><rect x="0" y="40" width="22" height="22" fill="#D52B1E"></rect><rect x="44" y="40" width="22" height="22" fill="#D52B1E"></rect><rect x="88" y="40" width="22" height="22" fill="#D52B1E"></rect><rect x="132" y="40" width="22" height="22" fill="#D52B1E"></rect><rect x="176" y="40" width="22" height="22" fill="#D52B1E"></rect><rect x="220" y="40" width="22" height="22" fill="#D52B1E"></rect><rect x="264" y="40" width="22" height="22" fill="#D52B1E"></rect><rect x="22" y="62" width="22" height="22" fill="#D52B1E"></rect><rect x="66" y="62" width="22" height="22" fill="#D52B1E"></rect><rect x="110" y="62" width="22" height="22" fill="#D52B1E"></rect><rect x="154" y="62" width="22" height="22" fill="#D52B1E"></rect><rect x="198" y="62" width="22" height="22" fill="#D52B1E"></rect><rect x="242" y="62" width="22" height="22" fill="#D52B1E"></rect><rect x="286" y="62" width="22" height="22" fill="#D52B1E"></rect><rect x="0" y="84" width="22" height="22" fill="#D52B1E"></rect><rect x="44" y="84" width="22" height="22" fill="#D52B1E"></rect><rect x="88" y="84" width="22" height="22" fill="#D52B1E"></rect><rect x="132" y="84" width="22" height="22" fill="#D52B1E"></rect><rect x="176" y="84" width="22" height="22" fill="#D52B1E"></rect><rect x="220" y="84" width="22" height="22" fill="#D52B1E"></rect><rect x="264" y="84" width="22" height="22" fill="#D52B1E"></rect><rect x="22" y="106" width="22" height="22" fill="#D52B1E"></rect><rect x="66" y="106" width="22" height="22" fill="#D52B1E"></rect><rect x="110" y="106" width="22" height="22" fill="#D52B1E"></rect><rect x="154" y="106" width="22" height="22" fill="#D52B1E"></rect><rect x="198" y="106" width="22" height="22" fill="#D52B1E"></rect><rect x="242" y="106" width="22" height="22" fill="#D52B1E"></rect><rect x="286" y="106" width="22" height="22" fill="#D52B1E"></rect><rect x="0" y="128" width="22" height="22" fill="#D52B1E"></rect><rect x="44" y="128" width="22" height="22" fill="#D52B1E"></rect><rect x="88" y="128" width="22" height="22" fill="#D52B1E"></rect><rect x="132" y="128" width="22" height="22" fill="#D52B1E"></rect><rect x="176" y="128" width="22" height="22" fill="#D52B1E"></rect><rect x="220" y="128" width="22" height="22" fill="#D52B1E"></rect><rect x="264" y="128" width="22" height="22" fill="#D52B1E"></rect><rect x="22" y="150" width="22" height="22" fill="#D52B1E"></rect><rect x="66" y="150" width="22" height="22" fill="#D52B1E"></rect><rect x="110" y="150" width="22" height="22" fill="#D52B1E"></rect><rect x="154" y="150" width="22" height="22" fill="#D52B1E"></rect><rect x="198" y="150" width="22" height="22" fill="#D52B1E"></rect><rect x="242" y="150" width="22" height="22" fill="#D52B1E"></rect><rect x="286" y="150" width="22" height="22" fill="#D52B1E"></rect><rect x="0" y="172" width="22" height="22" fill="#D52B1E"></rect><rect x="44" y="172" width="22" height="22" fill="#D52B1E"></rect><rect x="88" y="172" width="22" height="22" fill="#D52B1E"></rect><rect x="132" y="172" width="22" height="22" fill="#D52B1E"></rect><rect x="176" y="172" width="22" height="22" fill="#D52B1E"></rect><rect x="220" y="172" width="22" height="22" fill="#D52B1E"></rect><rect x="264" y="172" width="22" height="22" fill="#D52B1E"></rect><rect x="22" y="194" width="22" height="22" fill="#D52B1E"></rect><rect x="66" y="194" width="22" height="22" fill="#D52B1E"></rect><rect x="110" y="194" width="22" height="22" fill="#D52B1E"></rect><rect x="154" y="194" width="22" height="22" fill="#D52B1E"></rect><rect x="198" y="194" width="22" height="22" fill="#D52B1E"></rect><rect x="242" y="194" width="22" height="22" fill="#D52B1E"></rect><rect x="286" y="194" width="22" height="22" fill="#D52B1E"></rect><rect x="0" y="216" width="22" height="22" fill="#D52B1E"></rect><rect x="44" y="216" width="22" height="22" fill="#D52B1E"></rect><rect x="88" y="216" width="22" height="22" fill="#D52B1E"></rect><rect x="132" y="216" width="22" height="22" fill="#D52B1E"></rect><rect x="176" y="216" width="22" height="22" fill="#D52B1E"></rect><rect x="220" y="216" width="22" height="22" fill="#D52B1E"></rect><rect x="264" y="216" width="22" height="22" fill="#D52B1E"></rect><rect x="22" y="238" width="22" height="22" fill="#D52B1E"></rect><rect x="66" y="238" width="22" height="22" fill="#D52B1E"></rect><rect x="110" y="238" width="22" height="22" fill="#D52B1E"></rect><rect x="154" y="238" width="22" height="22" fill="#D52B1E"></rect><rect x="198" y="238" width="22" height="22" fill="#D52B1E"></rect><rect x="242" y="238" width="22" height="22" fill="#D52B1E"></rect><rect x="286" y="238" width="22" height="22" fill="#D52B1E"></rect><rect x="0" y="260" width="22" height="22" fill="#D52B1E"></rect><rect x="44" y="260" width="22" height="22" fill="#D52B1E"></rect><rect x="88" y="260" width="22" height="22" fill="#D52B1E"></rect><rect x="132" y="260" width="22" height="22" fill="#D52B1E"></rect><rect x="176" y="260" width="22" height="22" fill="#D52B1E"></rect><rect x="220" y="260" width="22" height="22" fill="#D52B1E"></rect><rect x="264" y="260" width="22" height="22" fill="#D52B1E"></rect><rect x="22" y="282" width="22" height="22" fill="#D52B1E"></rect><rect x="66" y="282" width="22" height="22" fill="#D52B1E"></rect><rect x="110" y="282" width="22" height="22" fill="#D52B1E"></rect><rect x="154" y="282" width="22" height="22" fill="#D52B1E"></rect><rect x="198" y="282" width="22" height="22" fill="#D52B1E"></rect><rect x="242" y="282" width="22" height="22" fill="#D52B1E"></rect><rect x="286" y="282" width="22" height="22" fill="#D52B1E"></rect><rect x="0" y="304" width="22" height="22" fill="#D52B1E"></rect><rect x="44" y="304" width="22" height="22" fill="#D52B1E"></rect><rect x="88" y="304" width="22" height="22" fill="#D52B1E"></rect><rect x="132" y="304" width="22" height="22" fill="#D52B1E"></rect><rect x="176" y="304" width="22" height="22" fill="#D52B1E"></rect><rect x="220" y="304" width="22" height="22" fill="#D52B1E"></rect><rect x="264" y="304" width="22" height="22" fill="#D52B1E"></rect><rect x="22" y="326" width="22" height="22" fill="#D52B1E"></rect><rect x="66" y="326" width="22" height="22" fill="#D52B1E"></rect><rect x="110" y="326" width="22" height="22" fill="#D52B1E"></rect><rect x="154" y="326" width="22" height="22" fill="#D52B1E"></rect><rect x="198" y="326" width="22" height="22" fill="#D52B1E"></rect><rect x="242" y="326" width="22" height="22" fill="#D52B1E"></rect><rect x="286" y="326" width="22" height="22" fill="#D52B1E"></rect><rect x="0" y="348" width="22" height="22" fill="#D52B1E"></rect><rect x="44" y="348" width="22" height="22" fill="#D52B1E"></rect><rect x="88" y="348" width="22" height="22" fill="#D52B1E"></rect><rect x="132" y="348" width="22" height="22" fill="#D52B1E"></rect><rect x="176" y="348" width="22" height="22" fill="#D52B1E"></rect><rect x="220" y="348" width="22" height="22" fill="#D52B1E"></rect><rect x="264" y="348" width="22" height="22" fill="#D52B1E"></rect><rect x="22" y="370" width="22" height="22" fill="#D52B1E"></rect><rect x="66" y="370" width="22" height="22" fill="#D52B1E"></rect><rect x="110" y="370" width="22" height="22" fill="#D52B1E"></rect><rect x="154" y="370" width="22" height="22" fill="#D52B1E"></rect><rect x="198" y="370" width="22" height="22" fill="#D52B1E"></rect><rect x="242" y="370" width="22" height="22" fill="#D52B1E"></rect><rect x="286" y="370" width="22" height="22" fill="#D52B1E"></rect></g><path d="M128,60 L118,52 L108,52 L60,92 L54,128 L98,138 L104,128 L96,296 Q96,304 104,304 L196,304 Q204,304 204,296 L196,128 L202,138 L246,128 L240,92 L192,52 L182,52 L172,60 Q150,76 128,60 Z" fill="none" stroke="#1f1f1f" stroke-width="3" stroke-linejoin="round"></path><path d="M128,60 Q150,76 172,60" fill="none" stroke="#0A1A3F" stroke-width="7" stroke-linecap="round"></path><path d="M60,92 L54,128" fill="none" stroke="#0A1A3F" stroke-width="7" stroke-linecap="round"></path><path d="M240,92 L246,128" fill="none" stroke="#0A1A3F" stroke-width="7" stroke-linecap="round"></path></svg>